<svg xmlns="http://www.w3.org/2000/svg" xmlns:xlink="http://www.w3.org/1999/xlink" contentStyleType="text/css" height="717px" preserveAspectRatio="none" style="width:1834px;height:717px;background:#FFFFFF;" version="1.1" viewBox="0 0 1834 717" width="1834px" zoomAndPan="magnify"><defs/><g><!--cluster ee434023cf89d7dfb21f63d64f0f9d74--><g id="cluster_ee434023cf89d7dfb21f63d64f0f9d74"><polygon fill="none" points="876,64.89,886,54.89,1274,54.89,1274,599.26,1264,609.26,876,609.26,876,64.89" style="stroke:#181818;stroke-width:1.0;"/><line style="stroke:#181818;stroke-width:1.0;" x1="1264" x2="1274" y1="64.89" y2="54.89"/><line style="stroke:#181818;stroke-width:1.0;" x1="876" x2="1264" y1="64.89" y2="64.89"/><line style="stroke:#181818;stroke-width:1.0;" x1="1264" x2="1264" y1="64.89" y2="609.26"/><text fill="#000000" font-family="sans-serif" font-size="14" font-weight="bold" lengthAdjust="spacing" textLength="44" x="1049" y="80.8851">Nginx</text></g><!--cluster d77d5e503ad1439f585ac494268b351b--><g id="cluster_d77d5e503ad1439f585ac494268b351b"><polygon fill="none" points="1298,40.44,1308,30.44,1766,30.44,1766,599.26,1756,609.26,1298,609.26,1298,40.44" style="stroke:#181818;stroke-width:1.0;"/><line style="stroke:#181818;stroke-width:1.0;" x1="1756" x2="1766" y1="40.44" y2="30.44"/><line style="stroke:#181818;stroke-width:1.0;" x1="1298" x2="1756" y1="40.44" y2="40.44"/><line style="stroke:#181818;stroke-width:1.0;" x1="1756" x2="1756" y1="40.44" y2="609.26"/><text fill="#000000" font-family="sans-serif" font-size="14" font-weight="bold" lengthAdjust="spacing" textLength="21" x="1517.5" y="56.4351">Db</text></g><!--cluster 2567a5ec9705eb7ac2c984033e06189d--><g id="cluster_2567a5ec9705eb7ac2c984033e06189d"><polygon fill="none" points="16,16,26,6,790,6,790,599.26,780,609.26,16,609.26,16,16" style="stroke:#181818;stroke-width:1.0;"/><line style="stroke:#181818;stroke-width:1.0;" x1="780" x2="790" y1="16" y2="6"/><line style="stroke:#181818;stroke-width:1.0;" x1="16" x2="780" y1="16" y2="16"/><line style="stroke:#181818;stroke-width:1.0;" x1="780" x2="780" y1="16" y2="609.26"/><text fill="#000000" font-family="sans-serif" font-size="14" font-weight="bold" lengthAdjust="spacing" textLength="35" x="381.5" y="31.9951">Web</text></g><!--entity fa52d928a9ded2c60f0410d413559885--><g id="elem_fa52d928a9ded2c60f0410d413559885"><rect fill="#F1F1F1" height="95.1875" rx="2.5" ry="2.5" style="stroke:#181818;stroke-width:0.5;" width="186" x="923" y="94.89"/><rect fill="#F1F1F1" height="10" style="stroke:#181818;stroke-width:0.5;" width="15" x="1089" y="99.89"/><rect fill="#F1F1F1" height="2" style="stroke:#181818;stroke-width:0.5;" width="4" x="1087" y="101.89"/><rect fill="#F1F1F1" height="2" style="stroke:#181818;stroke-width:0.5;" width="4" x="1087" y="105.89"/><text fill="#000000" font-family="sans-serif" font-size="14" font-weight="bold" lengthAdjust="spacing" textLength="146" x="938" y="127.8851">nginx_contrast_api</text><text fill="#000000" font-family="sans-serif" font-size="14" lengthAdjust="spacing" textLength="4" x="938" y="144.182">&#160;</text><text fill="#000000" font-family="sans-serif" font-size="14" lengthAdjust="spacing" textLength="131" x="938" y="160.4789">image: nginx:latest</text><text fill="#000000" font-family="sans-serif" font-size="14" lengthAdjust="spacing" textLength="4" x="938" y="176.7757">&#160;</text></g><!--entity 382d330dbdc34ce10823a7bc37c6a527--><g id="elem_382d330dbdc34ce10823a7bc37c6a527"><ellipse cx="919" cy="328.97" fill="#F1F1F1" rx="8" ry="8" style="stroke:#181818;stroke-width:0.5;"/><text fill="#000000" font-family="sans-serif" font-size="14" lengthAdjust="spacing" textLength="36" x="901" y="358.9651">8080</text></g><!--entity 2fa7aee62485704c3e604f816b6a321d--><g id="elem_2fa7aee62485704c3e604f816b6a321d"><rect fill="#F1F1F1" height="39.2969" rx="2.5" ry="2.5" style="stroke:#181818;stroke-width:0.5;" width="147" x="1110.5" y="553.97"/><polygon fill="#F1F1F1" points="1240.5,558.97,1240.5,572.97,1252.5,572.97,1252.5,564.97,1246.5,558.97,1240.5,558.97" style="stroke:#181818;stroke-width:0.5;"/><line style="stroke:#181818;stroke-width:0.5;" x1="1246.5" x2="1246.5" y1="558.97" y2="564.97"/><line style="stroke:#181818;stroke-width:0.5;" x1="1252.5" x2="1246.5" y1="564.97" y2="564.97"/><text fill="#000000" font-family="sans-serif" font-size="14" lengthAdjust="spacing" textLength="117" x="1120.5" y="579.9651">/etc/nginx/conf.d</text></g><!--entity a80e2a7860760047cd4a111cf85f64e0--><g id="elem_a80e2a7860760047cd4a111cf85f64e0"><rect fill="#F1F1F1" height="39.2969" rx="2.5" ry="2.5" style="stroke:#181818;stroke-width:0.5;" width="72" x="892" y="553.97"/><polygon fill="#F1F1F1" points="947,558.97,947,572.97,959,572.97,959,564.97,953,558.97,947,558.97" style="stroke:#181818;stroke-width:0.5;"/><line style="stroke:#181818;stroke-width:0.5;" x1="953" x2="953" y1="558.97" y2="564.97"/><line style="stroke:#181818;stroke-width:0.5;" x1="959" x2="953" y1="564.97" y2="564.97"/><text fill="#000000" font-family="sans-serif" font-size="14" lengthAdjust="spacing" textLength="42" x="902" y="579.9651">/static</text></g><!--entity 39761586c825f5e9b55145ee3cf6e6c3--><g id="elem_39761586c825f5e9b55145ee3cf6e6c3"><rect fill="#F1F1F1" height="39.2969" rx="2.5" ry="2.5" style="stroke:#181818;stroke-width:0.5;" width="77" x="998.5" y="553.97"/><polygon fill="#F1F1F1" points="1058.5,558.97,1058.5,572.97,1070.5,572.97,1070.5,564.97,1064.5,558.97,1058.5,558.97" style="stroke:#181818;stroke-width:0.5;"/><line style="stroke:#181818;stroke-width:0.5;" x1="1064.5" x2="1064.5" y1="558.97" y2="564.97"/><line style="stroke:#181818;stroke-width:0.5;" x1="1070.5" x2="1064.5" y1="564.97" y2="564.97"/><text fill="#000000" font-family="sans-serif" font-size="14" lengthAdjust="spacing" textLength="47" x="1008.5" y="579.9651">/media</text></g><!--entity cf686a70197f67f6d9ab9de33c57d44c--><g id="elem_cf686a70197f67f6d9ab9de33c57d44c"><rect fill="#F1F1F1" height="144.0781" rx="2.5" ry="2.5" style="stroke:#181818;stroke-width:0.5;" width="437" x="1313.5" y="70.44"/><rect fill="#F1F1F1" height="10" style="stroke:#181818;stroke-width:0.5;" width="15" x="1730.5" y="75.44"/><rect fill="#F1F1F1" height="2" style="stroke:#181818;stroke-width:0.5;" width="4" x="1728.5" y="77.44"/><rect fill="#F1F1F1" height="2" style="stroke:#181818;stroke-width:0.5;" width="4" x="1728.5" y="81.44"/><text fill="#000000" font-family="sans-serif" font-size="14" font-weight="bold" lengthAdjust="spacing" textLength="174" x="1328.5" y="103.4351">postgres_contrast_api</text><text fill="#000000" font-family="sans-serif" font-size="14" lengthAdjust="spacing" textLength="4" x="1328.5" y="119.732">&#160;</text><text fill="#000000" font-family="sans-serif" font-size="14" lengthAdjust="spacing" textLength="136" x="1328.5" y="136.0289">image: postgres:13</text><text fill="#000000" font-family="sans-serif" font-size="14" lengthAdjust="spacing" textLength="322" x="1328.5" y="152.3257">environment: POSTGRES_DB=contrast_api_db</text><text fill="#000000" font-family="sans-serif" font-size="14" lengthAdjust="spacing" textLength="352" x="1328.5" y="168.6226">environment: POSTGRES_USER=contrast_api_user</text><text fill="#000000" font-family="sans-serif" font-size="14" lengthAdjust="spacing" textLength="397" x="1328.5" y="184.9195">environment: POSTGRES_PASSWORD=contrast_api_pass</text><text fill="#000000" font-family="sans-serif" font-size="14" lengthAdjust="spacing" textLength="4" x="1328.5" y="201.2164">&#160;</text></g><!--entity 43bb4cb118845f08e05e758d93c57c6e--><g id="elem_43bb4cb118845f08e05e758d93c57c6e"><ellipse cx="1659" cy="328.97" fill="#F1F1F1" rx="8" ry="8" style="stroke:#181818;stroke-width:0.5;"/><text fill="#000000" font-family="sans-serif" font-size="14" lengthAdjust="spacing" textLength="36" x="1641" y="358.9651">5432</text></g><!--entity d5baecb173d637b4e1f821d6b00b6f89--><g id="elem_d5baecb173d637b4e1f821d6b00b6f89"><rect fill="#F1F1F1" height="39.2969" rx="2.5" ry="2.5" style="stroke:#181818;stroke-width:0.5;" width="189" x="1437.5" y="553.97"/><polygon fill="#F1F1F1" points="1609.5,558.97,1609.5,572.97,1621.5,572.97,1621.5,564.97,1615.5,558.97,1609.5,558.97" style="stroke:#181818;stroke-width:0.5;"/><line style="stroke:#181818;stroke-width:0.5;" x1="1615.5" x2="1615.5" y1="558.97" y2="564.97"/><line style="stroke:#181818;stroke-width:0.5;" x1="1621.5" x2="1615.5" y1="564.97" y2="564.97"/><text fill="#000000" font-family="sans-serif" font-size="14" lengthAdjust="spacing" textLength="159" x="1447.5" y="579.9651">/var/lib/postgresql/data</text></g><!--entity b09544de86d32ec6ab8f8b0c19a47ab0--><g id="elem_b09544de86d32ec6ab8f8b0c19a47ab0"><rect fill="#F1F1F1" height="192.9688" rx="2.5" ry="2.5" style="stroke:#181818;stroke-width:0.5;" width="743" x="31.5" y="46"/><rect fill="#F1F1F1" height="10" style="stroke:#181818;stroke-width:0.5;" width="15" x="754.5" y="51"/><rect fill="#F1F1F1" height="2" style="stroke:#181818;stroke-width:0.5;" width="4" x="752.5" y="53"/><rect fill="#F1F1F1" height="2" style="stroke:#181818;stroke-width:0.5;" width="4" x="752.5" y="57"/><text fill="#000000" font-family="sans-serif" font-size="14" font-weight="bold" lengthAdjust="spacing" textLength="137" x="46.5" y="78.9951">web_contrast_api</text><text fill="#000000" font-family="sans-serif" font-size="14" lengthAdjust="spacing" textLength="4" x="46.5" y="95.292">&#160;</text><text fill="#000000" font-family="sans-serif" font-size="14" lengthAdjust="spacing" textLength="457" x="46.5" y="111.5889">environment: DJANGO_ALLOWED_HOSTS=web,localhost,127.0.0.1</text><text fill="#000000" font-family="sans-serif" font-size="14" lengthAdjust="spacing" textLength="250" x="46.5" y="127.8857">environment: PYTHONBUFFERED=1</text><text fill="#000000" font-family="sans-serif" font-size="14" lengthAdjust="spacing" textLength="378" x="46.5" y="144.1826">environment: DJANGO_CONFIGURATION=Development</text><text fill="#000000" font-family="sans-serif" font-size="14" lengthAdjust="spacing" textLength="314" x="46.5" y="160.4795">environment: DJANGO_MEDIA_ROOT=/media/</text><text fill="#000000" font-family="sans-serif" font-size="14" lengthAdjust="spacing" textLength="450" x="46.5" y="176.7764">environment: DJANGO_SETTINGS_MODULE=contrast_api.settings</text><text fill="#000000" font-family="sans-serif" font-size="14" lengthAdjust="spacing" textLength="703" x="46.5" y="193.0732">environment: DATABASE_URL=postgresql://contrast_api_user:contrast_api_pass@db/contrast_api_db</text><text fill="#000000" font-family="sans-serif" font-size="14" lengthAdjust="spacing" textLength="118" x="46.5" y="209.3701">restart: on-failure</text><text fill="#000000" font-family="sans-serif" font-size="14" lengthAdjust="spacing" textLength="4" x="46.5" y="225.667">&#160;</text></g><!--entity 6ed77aa3555b6d8c7e87e991dfdf69b4--><g id="elem_6ed77aa3555b6d8c7e87e991dfdf69b4"><rect fill="#F1F1F1" height="39.2969" rx="2.5" ry="2.5" style="stroke:#181818;stroke-width:0.5;" width="72" x="536" y="553.97"/><polygon fill="#F1F1F1" points="591,558.97,591,572.97,603,572.97,603,564.97,597,558.97,591,558.97" style="stroke:#181818;stroke-width:0.5;"/><line style="stroke:#181818;stroke-width:0.5;" x1="597" x2="597" y1="558.97" y2="564.97"/><line style="stroke:#181818;stroke-width:0.5;" x1="603" x2="597" y1="564.97" y2="564.97"/><text fill="#000000" font-family="sans-serif" font-size="14" lengthAdjust="spacing" textLength="42" x="546" y="579.9651">/static</text></g><!--entity e781a6b421d647fcd42f7c8b9837a3cf--><g id="elem_e781a6b421d647fcd42f7c8b9837a3cf"><rect fill="#F1F1F1" height="39.2969" rx="2.5" ry="2.5" style="stroke:#181818;stroke-width:0.5;" width="77" x="666.5" y="553.97"/><polygon fill="#F1F1F1" points="726.5,558.97,726.5,572.97,738.5,572.97,738.5,564.97,732.5,558.97,726.5,558.97" style="stroke:#181818;stroke-width:0.5;"/><line style="stroke:#181818;stroke-width:0.5;" x1="732.5" x2="732.5" y1="558.97" y2="564.97"/><line style="stroke:#181818;stroke-width:0.5;" x1="738.5" x2="732.5" y1="564.97" y2="564.97"/><text fill="#000000" font-family="sans-serif" font-size="14" lengthAdjust="spacing" textLength="47" x="676.5" y="579.9651">/media</text></g><!--entity 4828f6ae3b82c98d804e794d8f53b681--><g id="elem_4828f6ae3b82c98d804e794d8f53b681"><rect fill="#F1F1F1" height="39.2969" rx="2.5" ry="2.5" style="stroke:#181818;stroke-width:0.5;" width="86" x="360" y="553.97"/><polygon fill="#F1F1F1" points="429,558.97,429,572.97,441,572.97,441,564.97,435,558.97,429,558.97" style="stroke:#181818;stroke-width:0.5;"/><line style="stroke:#181818;stroke-width:0.5;" x1="435" x2="435" y1="558.97" y2="564.97"/><line style="stroke:#181818;stroke-width:0.5;" x1="441" x2="435" y1="564.97" y2="564.97"/><text fill="#000000" font-family="sans-serif" font-size="14" lengthAdjust="spacing" textLength="56" x="370" y="579.9651">/srv/app</text></g><!--entity 600c44c1349e9154dce569ba37e2d70b--><g id="elem_600c44c1349e9154dce569ba37e2d70b"><ellipse cx="833" cy="463.97" fill="#F1F1F1" rx="8" ry="8" style="stroke:#181818;stroke-width:0.5;"/><text fill="#000000" font-family="sans-serif" font-size="14" lengthAdjust="spacing" textLength="36" x="815" y="493.9651">8080</text></g><!--entity c133dae7a45c449457a1a9b2344d3ffc--><g id="elem_c133dae7a45c449457a1a9b2344d3ffc"><ellipse cx="1809" cy="463.97" fill="#F1F1F1" rx="8" ry="8" style="stroke:#181818;stroke-width:0.5;"/><text fill="#000000" font-family="sans-serif" font-size="14" lengthAdjust="spacing" textLength="36" x="1791" y="493.9651">5433</text></g><!--entity ddc616a70efda83f365cfd5bf94d89e7--><g id="elem_ddc616a70efda83f365cfd5bf94d89e7"><rect fill="#F1F1F1" height="39.2969" rx="2.5" ry="2.5" style="stroke:#181818;stroke-width:0.5;" width="148" x="1110" y="672.26"/><polygon fill="#F1F1F1" points="1241,677.26,1241,691.26,1253,691.26,1253,683.26,1247,677.26,1241,677.26" style="stroke:#181818;stroke-width:0.5;"/><line style="stroke:#181818;stroke-width:0.5;" x1="1247" x2="1247" y1="677.26" y2="683.26"/><line style="stroke:#181818;stroke-width:0.5;" x1="1253" x2="1247" y1="683.26" y2="683.26"/><text fill="#000000" font-family="sans-serif" font-size="14" lengthAdjust="spacing" textLength="118" x="1120" y="698.2551">./nginx_compose</text></g><!--entity b0dee97d14577d63a2b23be635fe03d9--><g id="elem_b0dee97d14577d63a2b23be635fe03d9"><rect fill="#F1F1F1" height="39.2969" rx="2.5" ry="2.5" style="stroke:#181818;stroke-width:0.5;" width="111" x="609.5" y="672.26"/><polygon fill="#F1F1F1" points="703.5,677.26,703.5,691.26,715.5,691.26,715.5,683.26,709.5,677.26,703.5,677.26" style="stroke:#181818;stroke-width:0.5;"/><line style="stroke:#181818;stroke-width:0.5;" x1="709.5" x2="709.5" y1="677.26" y2="683.26"/><line style="stroke:#181818;stroke-width:0.5;" x1="715.5" x2="709.5" y1="683.26" y2="683.26"/><text fill="#000000" font-family="sans-serif" font-size="14" lengthAdjust="spacing" textLength="81" x="619.5" y="698.2551">./data/static</text></g><!--entity 34d2f16e42d38509fca99f5f80ede21d--><g id="elem_34d2f16e42d38509fca99f5f80ede21d"><rect fill="#F1F1F1" height="39.2969" rx="2.5" ry="2.5" style="stroke:#181818;stroke-width:0.5;" width="116" x="811" y="672.26"/><polygon fill="#F1F1F1" points="910,677.26,910,691.26,922,691.26,922,683.26,916,677.26,910,677.26" style="stroke:#181818;stroke-width:0.5;"/><line style="stroke:#181818;stroke-width:0.5;" x1="916" x2="916" y1="677.26" y2="683.26"/><line style="stroke:#181818;stroke-width:0.5;" x1="922" x2="916" y1="683.26" y2="683.26"/><text fill="#000000" font-family="sans-serif" font-size="14" lengthAdjust="spacing" textLength="86" x="821" y="698.2551">./data/media</text></g><!--entity 1e64b8b5e6d4ffd82a667eab5e3448e4--><g id="elem_1e64b8b5e6d4ffd82a667eab5e3448e4"><rect fill="#F1F1F1" height="39.2969" rx="2.5" ry="2.5" style="stroke:#181818;stroke-width:0.5;" width="136" x="1464" y="672.26"/><polygon fill="#F1F1F1" points="1583,677.26,1583,691.26,1595,691.26,1595,683.26,1589,677.26,1583,677.26" style="stroke:#181818;stroke-width:0.5;"/><line style="stroke:#181818;stroke-width:0.5;" x1="1589" x2="1589" y1="677.26" y2="683.26"/><line style="stroke:#181818;stroke-width:0.5;" x1="1595" x2="1589" y1="683.26" y2="683.26"/><text fill="#000000" font-family="sans-serif" font-size="14" lengthAdjust="spacing" textLength="106" x="1474" y="698.2551">./data/postgres</text></g><!--entity 58b9e70b65a77700ba66e9c64d6b9f89--><g id="elem_58b9e70b65a77700ba66e9c64d6b9f89"><rect fill="#F1F1F1" height="39.2969" rx="2.5" ry="2.5" style="stroke:#181818;stroke-width:0.5;" width="34" x="386" y="672.26"/><polygon fill="#F1F1F1" points="403,677.26,403,691.26,415,691.26,415,683.26,409,677.26,403,677.26" style="stroke:#181818;stroke-width:0.5;"/><line style="stroke:#181818;stroke-width:0.5;" x1="409" x2="409" y1="677.26" y2="683.26"/><line style="stroke:#181818;stroke-width:0.5;" x1="415" x2="409" y1="683.26" y2="683.26"/><text fill="#000000" font-family="sans-serif" font-size="14" lengthAdjust="spacing" textLength="4" x="396" y="698.2551">.</text></g><!--link fa52d928a9ded2c60f0410d413559885 to 382d330dbdc34ce10823a7bc37c6a527--><g id="link_fa52d928a9ded2c60f0410d413559885_382d330dbdc34ce10823a7bc37c6a527"><path codeLine="51" d="M991.27,190.51 C967.81,235.14 934.49,298.51 923.04,320.28 " fill="none" id="fa52d928a9ded2c60f0410d413559885-382d330dbdc34ce10823a7bc37c6a527" style="stroke:#181818;stroke-width:1.0;"/></g><!--link 382d330dbdc34ce10823a7bc37c6a527 to 600c44c1349e9154dce569ba37e2d70b--><g id="link_382d330dbdc34ce10823a7bc37c6a527_600c44c1349e9154dce569ba37e2d70b"><path codeLine="52" d="M913.88,337.89 C898.55,361.6 853.14,431.82 837.99,455.25 " fill="none" id="382d330dbdc34ce10823a7bc37c6a527-600c44c1349e9154dce569ba37e2d70b" style="stroke:#181818;stroke-width:1.0;"/></g><!--link 2fa7aee62485704c3e604f816b6a321d to ddc616a70efda83f365cfd5bf94d89e7--><g id="link_2fa7aee62485704c3e604f816b6a321d_ddc616a70efda83f365cfd5bf94d89e7"><path codeLine="53" d="M1184,593.56 C1184,615.18 1184,650.35 1184,671.98 " fill="none" id="2fa7aee62485704c3e604f816b6a321d-ddc616a70efda83f365cfd5bf94d89e7" style="stroke:#181818;stroke-width:1.0;"/><text fill="#000000" font-family="sans-serif" font-size="13" lengthAdjust="spacing" textLength="14" x="1185" y="638.3269">rw</text></g><!--link fa52d928a9ded2c60f0410d413559885 to 2fa7aee62485704c3e604f816b6a321d--><g id="link_fa52d928a9ded2c60f0410d413559885_2fa7aee62485704c3e604f816b6a321d"><path codeLine="54" d="M1034.3,190.22 C1070.87,283.63 1149.4129,484.2728 1174.3329,547.9328 " fill="none" id="fa52d928a9ded2c60f0410d413559885-to-2fa7aee62485704c3e604f816b6a321d" style="stroke:#181818;stroke-width:1.0;stroke-dasharray:7.0,7.0;"/><polygon fill="#181818" points="1176.52,553.52,1176.9641,543.6812,1174.6974,548.864,1169.5145,546.5973,1176.52,553.52" style="stroke:#181818;stroke-width:1.0;"/><text fill="#000000" font-family="sans-serif" font-size="13" lengthAdjust="spacing" textLength="23" x="1119" y="401.0369">use</text></g><!--link a80e2a7860760047cd4a111cf85f64e0 to b0dee97d14577d63a2b23be635fe03d9--><g id="link_a80e2a7860760047cd4a111cf85f64e0_b0dee97d14577d63a2b23be635fe03d9"><path codeLine="55" d="M897.17,593.68 C872.96,608.16 838.08,627.97 806,642.26 C778.56,654.49 747.04,665.63 720.77,674.15 " fill="none" id="a80e2a7860760047cd4a111cf85f64e0-b0dee97d14577d63a2b23be635fe03d9" style="stroke:#181818;stroke-width:1.0;"/><text fill="#000000" font-family="sans-serif" font-size="13" lengthAdjust="spacing" textLength="14" x="841" y="638.3269">rw</text></g><!--link fa52d928a9ded2c60f0410d413559885 to a80e2a7860760047cd4a111cf85f64e0--><g id="link_fa52d928a9ded2c60f0410d413559885_a80e2a7860760047cd4a111cf85f64e0"><path codeLine="56" d="M1006.41,190.22 C987.26,283.63 946.1749,483.9822 933.1249,547.6422 " fill="none" id="fa52d928a9ded2c60f0410d413559885-to-a80e2a7860760047cd4a111cf85f64e0" style="stroke:#181818;stroke-width:1.0;stroke-dasharray:7.0,7.0;"/><polygon fill="#181818" points="931.92,553.52,937.6459,545.5066,932.9241,548.6219,929.8089,543.9001,931.92,553.52" style="stroke:#181818;stroke-width:1.0;"/><text fill="#000000" font-family="sans-serif" font-size="13" lengthAdjust="spacing" textLength="23" x="966" y="401.0369">use</text></g><!--link 39761586c825f5e9b55145ee3cf6e6c3 to 34d2f16e42d38509fca99f5f80ede21d--><g id="link_39761586c825f5e9b55145ee3cf6e6c3_34d2f16e42d38509fca99f5f80ede21d"><path codeLine="57" d="M1013.23,593.73 C1003.66,601.25 992.43,609.84 982,617.26 C954.72,636.68 922.66,657.39 899.67,671.88 " fill="none" id="39761586c825f5e9b55145ee3cf6e6c3-34d2f16e42d38509fca99f5f80ede21d" style="stroke:#181818;stroke-width:1.0;"/><text fill="#000000" font-family="sans-serif" font-size="13" lengthAdjust="spacing" textLength="14" x="971" y="638.3269">rw</text></g><!--link fa52d928a9ded2c60f0410d413559885 to 39761586c825f5e9b55145ee3cf6e6c3--><g id="link_fa52d928a9ded2c60f0410d413559885_39761586c825f5e9b55145ee3cf6e6c3"><path codeLine="58" d="M1018.29,190.22 C1022.86,283.63 1032.6563,483.8672 1035.7763,547.5272 " fill="none" id="fa52d928a9ded2c60f0410d413559885-to-39761586c825f5e9b55145ee3cf6e6c3" style="stroke:#181818;stroke-width:1.0;stroke-dasharray:7.0,7.0;"/><polygon fill="#181818" points="1036.07,553.52,1039.6246,544.335,1035.8252,548.526,1031.6342,544.7266,1036.07,553.52" style="stroke:#181818;stroke-width:1.0;"/><text fill="#000000" font-family="sans-serif" font-size="13" lengthAdjust="spacing" textLength="23" x="1029" y="401.0369">use</text></g><!--link cf686a70197f67f6d9ab9de33c57d44c to 43bb4cb118845f08e05e758d93c57c6e--><g id="link_cf686a70197f67f6d9ab9de33c57d44c_43bb4cb118845f08e05e758d93c57c6e"><path codeLine="59" d="M1581.1,214.81 C1609.16,255.57 1641.18,302.08 1653.64,320.19 " fill="none" id="cf686a70197f67f6d9ab9de33c57d44c-43bb4cb118845f08e05e758d93c57c6e" style="stroke:#181818;stroke-width:1.0;"/></g><!--link 43bb4cb118845f08e05e758d93c57c6e to c133dae7a45c449457a1a9b2344d3ffc--><g id="link_43bb4cb118845f08e05e758d93c57c6e_c133dae7a45c449457a1a9b2344d3ffc"><path codeLine="60" d="M1667.93,337.89 C1694.68,361.6 1773.87,431.82 1800.3,455.25 " fill="none" id="43bb4cb118845f08e05e758d93c57c6e-c133dae7a45c449457a1a9b2344d3ffc" style="stroke:#181818;stroke-width:1.0;"/></g><!--link d5baecb173d637b4e1f821d6b00b6f89 to 1e64b8b5e6d4ffd82a667eab5e3448e4--><g id="link_d5baecb173d637b4e1f821d6b00b6f89_1e64b8b5e6d4ffd82a667eab5e3448e4"><path codeLine="61" d="M1532,593.56 C1532,615.18 1532,650.35 1532,671.98 " fill="none" id="d5baecb173d637b4e1f821d6b00b6f89-1e64b8b5e6d4ffd82a667eab5e3448e4" style="stroke:#181818;stroke-width:1.0;"/><text fill="#000000" font-family="sans-serif" font-size="13" lengthAdjust="spacing" textLength="14" x="1533" y="638.3269">rw</text></g><!--link cf686a70197f67f6d9ab9de33c57d44c to d5baecb173d637b4e1f821d6b00b6f89--><g id="link_cf686a70197f67f6d9ab9de33c57d44c_d5baecb173d637b4e1f821d6b00b6f89"><path codeLine="62" d="M1532,214.83 C1532,315.88 1532,488.93 1532,547.5 " fill="none" id="cf686a70197f67f6d9ab9de33c57d44c-to-d5baecb173d637b4e1f821d6b00b6f89" style="stroke:#181818;stroke-width:1.0;stroke-dasharray:7.0,7.0;"/><polygon fill="#181818" points="1532,553.5,1536,544.5,1532,548.5,1528,544.5,1532,553.5" style="stroke:#181818;stroke-width:1.0;"/><text fill="#000000" font-family="sans-serif" font-size="13" lengthAdjust="spacing" textLength="23" x="1533" y="401.0369">use</text></g><!--link 6ed77aa3555b6d8c7e87e991dfdf69b4 to b0dee97d14577d63a2b23be635fe03d9--><g id="link_6ed77aa3555b6d8c7e87e991dfdf69b4_b0dee97d14577d63a2b23be635fe03d9"><path codeLine="63" d="M587.15,593.56 C604.44,615.18 632.57,650.35 649.86,671.98 " fill="none" id="6ed77aa3555b6d8c7e87e991dfdf69b4-b0dee97d14577d63a2b23be635fe03d9" style="stroke:#181818;stroke-width:1.0;"/><text fill="#000000" font-family="sans-serif" font-size="13" lengthAdjust="spacing" textLength="14" x="625" y="638.3269">rw</text></g><!--link b09544de86d32ec6ab8f8b0c19a47ab0 to 6ed77aa3555b6d8c7e87e991dfdf69b4--><g id="link_b09544de86d32ec6ab8f8b0c19a47ab0_6ed77aa3555b6d8c7e87e991dfdf69b4"><path codeLine="64" d="M440.72,239.25 C481.38,342.51 540.9514,493.7773 562.2614,547.8873 " fill="none" id="b09544de86d32ec6ab8f8b0c19a47ab0-to-6ed77aa3555b6d8c7e87e991dfdf69b4" style="stroke:#181818;stroke-width:1.0;stroke-dasharray:7.0,7.0;"/><polygon fill="#181818" points="564.46,553.47,564.8839,543.6303,562.6278,548.8178,557.4403,546.5617,564.46,553.47" style="stroke:#181818;stroke-width:1.0;"/><text fill="#000000" font-family="sans-serif" font-size="13" lengthAdjust="spacing" textLength="23" x="506" y="401.0369">use</text></g><!--link e781a6b421d647fcd42f7c8b9837a3cf to 34d2f16e42d38509fca99f5f80ede21d--><g id="link_e781a6b421d647fcd42f7c8b9837a3cf_34d2f16e42d38509fca99f5f80ede21d"><path codeLine="65" d="M725.89,593.71 C741.81,607.85 764.57,627.19 786,642.26 C801.03,652.83 818.47,663.3 833.47,671.8 " fill="none" id="e781a6b421d647fcd42f7c8b9837a3cf-34d2f16e42d38509fca99f5f80ede21d" style="stroke:#181818;stroke-width:1.0;"/><text fill="#000000" font-family="sans-serif" font-size="13" lengthAdjust="spacing" textLength="14" x="787" y="638.3269">rw</text></g><!--link b09544de86d32ec6ab8f8b0c19a47ab0 to e781a6b421d647fcd42f7c8b9837a3cf--><g id="link_b09544de86d32ec6ab8f8b0c19a47ab0_e781a6b421d647fcd42f7c8b9837a3cf"><path codeLine="66" d="M470.4,239.25 C543.06,342.51 649.9969,494.4533 688.0769,548.5633 " fill="none" id="b09544de86d32ec6ab8f8b0c19a47ab0-to-e781a6b421d647fcd42f7c8b9837a3cf" style="stroke:#181818;stroke-width:1.0;stroke-dasharray:7.0,7.0;"/><polygon fill="#181818" points="691.53,553.47,689.6215,543.8078,688.6524,549.3811,683.0792,548.412,691.53,553.47" style="stroke:#181818;stroke-width:1.0;"/><text fill="#000000" font-family="sans-serif" font-size="13" lengthAdjust="spacing" textLength="23" x="587" y="401.0369">use</text></g><!--link 4828f6ae3b82c98d804e794d8f53b681 to 58b9e70b65a77700ba66e9c64d6b9f89--><g id="link_4828f6ae3b82c98d804e794d8f53b681_58b9e70b65a77700ba66e9c64d6b9f89"><path codeLine="67" d="M403,593.56 C403,615.18 403,650.35 403,671.98 " fill="none" id="4828f6ae3b82c98d804e794d8f53b681-58b9e70b65a77700ba66e9c64d6b9f89" style="stroke:#181818;stroke-width:1.0;"/><text fill="#000000" font-family="sans-serif" font-size="13" lengthAdjust="spacing" textLength="14" x="404" y="638.3269">rw</text></g><!--link b09544de86d32ec6ab8f8b0c19a47ab0 to 4828f6ae3b82c98d804e794d8f53b681--><g id="link_b09544de86d32ec6ab8f8b0c19a47ab0_4828f6ae3b82c98d804e794d8f53b681"><path codeLine="68" d="M403,239.25 C403,342.51 403,493.36 403,547.47 " fill="none" id="b09544de86d32ec6ab8f8b0c19a47ab0-to-4828f6ae3b82c98d804e794d8f53b681" style="stroke:#181818;stroke-width:1.0;stroke-dasharray:7.0,7.0;"/><polygon fill="#181818" points="403,553.47,407,544.47,403,548.47,399,544.47,403,553.47" style="stroke:#181818;stroke-width:1.0;"/><text fill="#000000" font-family="sans-serif" font-size="13" lengthAdjust="spacing" textLength="23" x="404" y="401.0369">use</text></g><!--SRC=[bLLRRvf747tdLtpYgRLYsFi5oLL98OuZnqI05LLLXMPtPrqa31I-s96g_lSE7wQ5sD7MWYUOozapPyx0Oh5wl9z_dI_lMijLmgfzSpTVVcrNiAqGbLHCo9YTJpRb87WsCXcLMQOVLFLNgugh-_LgYSkwog15yiA1JvX4D2mpnLbIN6hjdTFLRwspi-Mk-2okblK6jlKCrlEpirPhVWztsAkQFtiBg75Rjrg_jtxuiMexvbW3HZgHf6Gff2XLHCwSa613b3OQwcnRiAdd6M9TjRjOnsvJh4kTSYSr1KG62uX6AASjKr6YOIexRe81ANWwBh2jePx79WqSGm7M6MODOyh6f81pJfpeR1IouxHxJ7FOe_NMSErCT49dZJvepPL692uDcYXRVp-nFGXDVB8sQTHCGk9A-goTXgYy4iO5gNaufPgAE0EMSM-peM_o48XrAQEsIQdOKBrURUkx3Mw_n_RX_nwNBLm-p3UhvJqLxrMVHfFfvNWucGtUNXpdpbBuJk3jP3W-3VsonSrtWZ_r9vFFe_7WD64Ds-rXvbf9qR2YP0Wg1iwTKpepXqoZrIxvtKEZmMFk7s3JNSn3z_2iFnVT1FL-6aa7GAfZIRpI1eKyEvgu2Om5G-B-TngVSJyEeOq5ZT5RwXWiH16zKqnAP8RJCfoE8p2lbKheJ982IOx1PHTOv1wKXS2QSJnYU3Q94u867_etbwDP__fwz7aucBqdlYONbFLciOgm-8EUzOOBss7quTzG- -lq_UZcxUsxTyFnS731Nwpxo-ZctTNbxRW_lHhTN0pm0HUhzIxYnUYFmy5LVpOUZQONUrLtNmoR3AVJgvlBoUpZQ71xFJmPQMUBTKssilqcip_jl-rFXhFRyVN5VyFgTRlF1DHxff2VK-X-AqbAhqa7lMgrFCymNtpPu4v8Bs-pGTeq0B8a7KnoqQApw3rFEMNZWtfvcz4w3YQedMQKpMG18jleWdVI0gtqIRFDGnVMwxr-dN3P0ChWTW9AZYcqNYMNjGp6STBTYSUHmKHQNowLHy-rIX4reG9fKIJBmc4xP1DDSJ81Mb2QihpI5ZZu82HfKUOSZr1rkWVZ9SrkSRyKAHg-Sn7C2PpCqkYOQLFo3g17UvA-MwLZ7WDBYDwIMMboBYD1KD-0HkgCJ2R_FFd86rKIcHjKPEXECvyZU7AyJ4QRyDI8dt8FCcdIEHeLND1eaievEG76M0JwWHxky7Y4dIP1qw2Gs3CQhBMqyfI0FXf51k1tsr-yNEVfl7n_IW5DbUA4IrUggL8QNTMhsfl7TlbXdKxgT7ugdiPTFLh8Tgjq31jq9Msy5bsnwG5TwUZkvrXGtslH5PiUq1MFzWvTyUAL0fegHMSe7SIcIcdH3amL7_R4LB7fWQcIIRzAPSNZ_8IksFI0hdGCNgMo_ukksFI0hdHo6dGbHtmjkcBJ9tJ_0000]--></g></svg>